<?xml version="1.0" encoding="UTF-8"?>
<svg width="120" height="40" viewBox="0 0 120 40" fill="none" xmlns="http://www.w3.org/2000/svg">
  <path d="M15 8C8.92487 8 4 12.9249 4 19C4 25.0751 8.92487 30 15 30C21.0751 30 26 25.0751 26 19C26 12.9249 21.0751 8 15 8ZM15 28C10.0294 28 6 23.9706 6 19C6 14.0294 10.0294 10 15 10C19.9706 10 24 14.0294 24 19C24 23.9706 19.9706 28 15 28Z" fill="#0EA5E9"/>
  <path d="M15 14C12.2386 14 10 16.2386 10 19C10 21.7614 12.2386 24 15 24C17.7614 24 20 21.7614 20 19C20 16.2386 17.7614 14 15 14ZM15 22C13.3431 22 12 20.6569 12 19C12 17.3431 13.3431 16 15 16C16.6569 16 18 17.3431 18 19C18 20.6569 16.6569 22 15 22Z" fill="#0EA5E9"/>
  <path d="M35.84 28V12.8H42.44C43.8933 12.8 45.12 13.0933 46.12 13.68C47.12 14.2667 47.8733 15.0667 48.38 16.08C48.9 17.08 49.16 18.2 49.16 19.44C49.16 20.6667 48.9 21.78 48.38 22.78C47.8733 23.78 47.12 24.5733 46.12 25.16C45.12 25.7467 43.8933 26.04 42.44 26.04H38.36V28H35.84ZM38.36 23.84H42.32C43.2133 23.84 43.9733 23.6667 44.6 23.32C45.2267 22.96 45.7 22.4667 46.02 21.84C46.3533 21.2 46.52 20.4667 46.52 19.64C46.52 18.8133 46.3533 18.08 46.02 17.44C45.7 16.8 45.2267 16.3067 44.6 15.96C43.9733 15.6 43.2133 15.42 42.32 15.42H38.36V23.84Z" fill="#0EA5E9"/>
  <path d="M57.8031 28.24C56.6298 28.24 55.5698 27.9867 54.6231 27.48C53.6898 26.96 52.9498 26.24 52.4031 25.32C51.8698 24.3867 51.6031 23.3067 51.6031 22.08C51.6031 20.8533 51.8698 19.78 52.4031 18.86C52.9498 17.94 53.6898 17.2267 54.6231 16.72C55.5698 16.2 56.6298 15.94 57.8031 15.94C58.9765 15.94 60.0298 16.2 60.9631 16.72C61.9098 17.2267 62.6498 17.94 63.1831 18.86C63.7298 19.78 64.0031 20.8533 64.0031 22.08C64.0031 23.3067 63.7298 24.3867 63.1831 25.32C62.6498 26.24 61.9098 26.96 60.9631 27.48C60.0298 27.9867 58.9765 28.24 57.8031 28.24ZM57.8031 26.04C58.5098 26.04 59.1498 25.8867 59.7231 25.58C60.2965 25.26 60.7498 24.8067 61.0831 24.22C61.4298 23.62 61.6031 22.9067 61.6031 22.08C61.6031 21.2533 61.4298 20.5467 61.0831 19.96C60.7498 19.36 60.2965 18.9067 59.7231 18.6C59.1498 18.28 58.5098 18.12 57.8031 18.12C57.0965 18.12 56.4565 18.28 55.8831 18.6C55.3098 18.9067 54.8498 19.36 54.5031 19.96C54.1698 20.5467 54.0031 21.2533 54.0031 22.08C54.0031 22.9067 54.1698 23.62 54.5031 24.22C54.8498 24.8067 55.3098 25.26 55.8831 25.58C56.4565 25.8867 57.0965 26.04 57.8031 26.04Z" fill="#0EA5E9"/>
  <path d="M66.4297 28V16.18H68.7097V18.54C69.0297 17.7 69.5497 17.0667 70.2697 16.64C71.0031 16.2 71.8764 15.98 72.8897 15.98V18.38H72.2497C71.5964 18.38 71.0097 18.5 70.4897 18.74C69.9831 18.9667 69.5831 19.3467 69.2897 19.88C69.0097 20.4 68.8697 21.1 68.8697 21.98V28H66.4297Z" fill="#0EA5E9"/>
  <path d="M80.1875 28.24C79.0142 28.24 77.9542 27.9867 77.0075 27.48C76.0742 26.96 75.3342 26.24 74.7875 25.32C74.2542 24.3867 73.9875 23.3067 73.9875 22.08C73.9875 20.8533 74.2542 19.78 74.7875 18.86C75.3342 17.94 76.0742 17.2267 77.0075 16.72C77.9542 16.2 79.0142 15.94 80.1875 15.94C81.3609 15.94 82.4142 16.2 83.3475 16.72C84.2942 17.2267 85.0342 17.94 85.5675 18.86C86.1142 19.78 86.3875 20.8533 86.3875 22.08C86.3875 23.3067 86.1142 24.3867 85.5675 25.32C85.0342 26.24 84.2942 26.96 83.3475 27.48C82.4142 27.9867 81.3609 28.24 80.1875 28.24ZM80.1875 26.04C80.8942 26.04 81.5342 25.8867 82.1075 25.58C82.6809 25.26 83.1342 24.8067 83.4675 24.22C83.8142 23.62 83.9875 22.9067 83.9875 22.08C83.9875 21.2533 83.8142 20.5467 83.4675 19.96C83.1342 19.36 82.6809 18.9067 82.1075 18.6C81.5342 18.28 80.8942 18.12 80.1875 18.12C79.4809 18.12 78.8409 18.28 78.2675 18.6C77.6942 18.9067 77.2342 19.36 76.8875 19.96C76.5542 20.5467 76.3875 21.2533 76.3875 22.08C76.3875 22.9067 76.5542 23.62 76.8875 24.22C77.2342 24.8067 77.6942 25.26 78.2675 25.58C78.8409 25.8867 79.4809 26.04 80.1875 26.04Z" fill="#0EA5E9"/>
  <path d="M95.0141 28L90.7741 16.18H93.2941L96.3741 25.44L99.4541 16.18H101.974L97.7341 28H95.0141Z" fill="#0EA5E9"/>
  <path d="M109.094 28.24C107.907 28.24 106.847 27.9867 105.914 27.48C104.981 26.96 104.247 26.24 103.714 25.32C103.181 24.3867 102.914 23.3067 102.914 22.08C102.914 20.8533 103.181 19.78 103.714 18.86C104.247 17.94 104.981 17.2267 105.914 16.72C106.847 16.2 107.907 15.94 109.094 15.94C110.267 15.94 111.321 16.2 112.254 16.72C113.187 17.2267 113.921 17.94 114.454 18.86C115.001 19.78 115.274 20.8533 115.274 22.08C115.274 23.3067 115.001 24.3867 114.454 25.32C113.921 26.24 113.187 26.96 112.254 27.48C111.321 27.9867 110.267 28.24 109.094 28.24ZM109.094 26.04C109.801 26.04 110.441 25.8867 111.014 25.58C111.587 25.26 112.041 24.8067 112.374 24.22C112.721 23.62 112.894 22.9067 112.894 22.08C112.894 21.2533 112.721 20.5467 112.374 19.96C112.041 19.36 111.587 18.9067 111.014 18.6C110.441 18.28 109.801 18.12 109.094 18.12C108.387 18.12 107.747 18.28 107.174 18.6C106.601 18.9067 106.141 19.36 105.794 19.96C105.461 20.5467 105.294 21.2533 105.294 22.08C105.294 22.9067 105.461 23.62 105.794 24.22C106.141 24.8067 106.601 25.26 107.174 25.58C107.747 25.8867 108.387 26.04 109.094 26.04Z" fill="#0EA5E9"/>
</svg>